#!OML:ASF X:\für Bonn\!DataBase\2005_08_10_Bjorn_Final\c3d\bjorn.ASF
:FULLY-SPECIFIED
:DEGREES
136
root 16.7322 17.5476 0.267001 1092.16 -67.5845 -330.18
lowerback 58.5686 -1.06582 12.2937
upperback 20.6236 2.10877 -2.35577
thorax 2.72002 1.83867 -8.70523
lowerneck 8.37356 -6.06975 11.133
upperneck -18.2849 -7.24568 -2.40507
head -7.52322 -4.15384 -1.91661
rclavicle 1.11319e-013 -3.97569e-014
rhumerus 77.601 -8.67556 -77.6099
rradius 6.95122
rwrist 3.21693
rhand -36.5965 21.8124
rfingers 7.12502
rthumb -9.68534 -7.94492
lclavicle 1.11319e-013 -3.97569e-014
lhumerus -6.58896 -20.6545 85.8511
lradius 47.8242
lwrist -0.406993
lhand -27.1435 -13.8265
lfingers 7.12502
lthumb -0.558686 16.1525
rfemur -81.7037 -17.7482 14.5629
rtibia 63.749
rfoot -15.7577 10.7188
rtoes -3.24824
lfemur -77.5785 -4.37825 -24.9843
ltibia 58.0181
lfoot -12.8007 -6.45209
ltoes -8.11944
137
root 16.7074 17.5543 0.250514 1092.1 -67.3918 -330.155
lowerback 58.8468 -1.0646 12.2435
upperback 20.59 2.13028 -2.27049
thorax 2.67234 1.8338 -8.58818
lowerneck 8.42589 -6.07994 11.2054
upperneck -18.3488 -7.2489 -2.43816
head -7.55825 -4.15866 -1.93623
rclavicle 2.54444e-014 6.04305e-014
rhumerus 77.6578 -8.41542 -77.0365
rradius 6.74707
rwrist 3.14494
rhand -37.9383 22.3825
rfingers 7.12502
rthumb -10.9798 -7.31039
lclavicle 2.54444e-014 6.04305e-014
lhumerus -6.54192 -20.951 86.0412
lradius 48.0001
lwrist -0.368699
lhand -27.0236 -14.144
lfingers 7.12502
lthumb -0.442855 15.8353
rfemur -81.5277 -17.8228 14.5501
rtibia 63.7511
rfoot -15.8849 10.6716
rtoes -3.16384
lfemur -77.3951 -4.41007 -25.0046
ltibia 57.8962
lfoot -12.7976 -6.59715
ltoes -8.08424
138
root 16.6827 17.5601 0.23389 1092.06 -67.2113 -330.143
lowerback 59.0869 -1.06554 12.2085
upperback 20.5899 2.14353 -2.23054
thorax 2.66524 1.83662 -8.52654
lowerneck 8.38838 -6.08664 11.4234
upperneck -18.3719 -7.2476 -2.53607
head -7.57239 -4.16556 -2.00356
rclavicle 3.49861e-014 -1.90833e-014
rhumerus 77.7671 -8.19671 -76.5387
rradius 6.53635
rwrist 2.92436
rhand -39.2621 22.9058
rfingers 7.12502
rthumb -12.2564 -6.71501
lclavicle 3.49861e-014 -1.90833e-014
lhumerus -6.40914 -21.2462 86.1401
lradius 48.1363
lwrist -0.3885
lhand -26.9085 -14.4434
lfingers 7.12502
lthumb -0.33171 15.5361
rfemur -81.3765 -17.8956 14.5648
rtibia 63.7583
rfoot -16.0241 10.617
rtoes -3.39306
lfemur -77.2091 -4.43443 -25.0131
ltibia 57.7675
lfoot -12.7943 -6.74673
ltoes -7.96788
139
root 16.6597 17.565 0.218353 1091.96 -67.0334 -330.052
lowerback 59.3098 -1.04194 12.0774
upperback 20.5793 2.13907 -2.15377
thorax 2.63348 1.81547 -8.37715
lowerneck 8.42998 -6.07161 11.54
upperneck -18.4292 -7.2215 -2.6266
head -7.60498 -4.15428 -2.05268
rclavicle -3.18055e-015 3.65764e-014
rhumerus 77.915 -7.87026 -75.9923
rradius 6.26232
rwrist 2.67852
rhand -40.5848 23.371
rfingers 7.12502
rthumb -13.5315 -6.16938
lclavicle -3.18055e-015 3.65764e-014
lhumerus -6.33449 -21.4046 86.3158
lradius 48.2836
lwrist -0.4385
lhand -26.7973 -14.7122
lfingers 7.12502
lthumb -0.224352 15.2675
rfemur -81.2379 -17.9761 14.5369
rtibia 63.7618
rfoot -16.1401 10.5744
rtoes -3.26304
lfemur -77.0474 -4.44327 -25.0856
ltibia 57.6411
lfoot -12.7551 -6.92793
ltoes -7.76245
140
root 16.6375 17.5714 0.202815 1091.91 -66.84 -330.033
lowerback 59.5698 -0.994434 11.9396
upperback 20.5225 2.17294 -2.01446
thorax 2.55315 1.79783 -8.16782
lowerneck 8.56923 -6.06687 11.6084
upperneck -18.5007 -7.20612 -2.72658
head -7.65843 -4.14275 -2.09334
rclavicle -1.30403e-013 7.95139e-015
rhumerus 77.9565 -7.56528 -75.3611
rradius 6.07392
rwrist 2.37215
rhand -41.7271 23.8009
rfingers 7.12502
rthumb -14.6322 -5.66283
lclavicle -1.30403e-013 7.95139e-015
lhumerus -6.34603 -21.5487 86.5965
lradius 48.3952
lwrist -0.468607
lhand -26.743 -15.02
lfingers 7.12502
lthumb -0.171905 14.9597
rfemur -81.085 -18.0486 14.5297
rtibia 63.7633
rfoot -16.2739 10.4842
rtoes -3.41388
lfemur -76.863 -4.45104 -25.1334
ltibia 57.5041
lfoot -12.7128 -7.11749
ltoes -7.64297
141
root 16.6157 17.5785 0.18808 1091.89 -66.6638 -330.061
lowerback 59.8131 -0.973772 11.8498
upperback 20.4811 2.19286 -1.91684
thorax 2.49453 1.78492 -8.02119
lowerneck 8.70185 -6.07056 11.6655
upperneck -18.5872 -7.2025 -2.80999
head -7.71562 -4.13825 -2.12566
rclavicle 4.13472e-014 3.02153e-014
rhumerus 77.9752 -7.30195 -74.7721
rradius 5.92506
rwrist 2.06293
rhand -42.7861 24.2717
rfingers 7.12502
rthumb -15.6524 -5.11517
lclavicle 4.13472e-014 3.02153e-014
lhumerus -6.33323 -21.6886 86.8184
lradius 48.5056
lwrist -0.508047
lhand -26.6492 -15.3507
lfingers 7.12502
lthumb -0.0812797 14.629
rfemur -80.9225 -18.1161 14.5519
rtibia 63.7502
rfoot -16.3922 10.4237
rtoes -3.49614
lfemur -76.672 -4.44694 -25.161
ltibia 57.3616
lfoot -12.6856 -7.29802
ltoes -7.57923
142
root 16.5949 17.5856 0.17448 1091.9 -66.5021 -330.089
lowerback 60.0355 -0.942306 11.7701
upperback 20.4484 2.2255 -1.81487
thorax 2.44941 1.7793 -7.87911
lowerneck 8.88308 -6.08343 11.7228
upperneck -18.7495 -7.20115 -2.86654
head -7.80613 -4.13894 -2.14686
rclavicle 4.45278e-014 6.36111e-015
rhumerus 77.989 -7.08844 -74.1626
rradius 5.806
rwrist 1.65477
rhand -43.7008 24.8069
rfingers 7.12502
rthumb -16.5332 -4.50872
lclavicle 4.45278e-014 6.36111e-015
lhumerus -6.28359 -21.8832 87.0479
lradius 48.5748
lwrist -0.482529
lhand -26.6516 -15.6448
lfingers 7.12502
lthumb -0.0836127 14.335
rfemur -80.7739 -18.1737 14.5778
rtibia 63.7284
rfoot -16.5175 10.349
rtoes -3.71908
lfemur -76.5003 -4.44896 -25.1639
ltibia 57.2175
lfoot -12.6296 -7.46484
ltoes -7.28833
143
root 16.5748 17.5928 0.16046 1091.87 -66.3274 -330.085
lowerback 60.2486 -0.912609 11.6748
upperback 20.4193 2.24809 -1.70468
thorax 2.40567 1.76686 -7.71801
lowerneck 9.04306 -6.08905 11.7196
upperneck -18.8944 -7.19839 -2.9012
head -7.88363 -4.13658 -2.15233
rclavicle -6.36111e-014 6.99722e-014
rhumerus 78.02 -6.87644 -73.542
rradius 5.64018
rwrist 1.18915
rhand -44.5141 25.5905
rfingers 7.12502
rthumb -17.316 -3.65811
lclavicle -6.36111e-014 6.99722e-014
lhumerus -6.24634 -22.0767 87.2679
lradius 48.6789
lwrist -0.494605
lhand -26.6687 -15.7965
lfingers 7.12502
lthumb -0.100096 14.1832
rfemur -80.6292 -18.2392 14.582
rtibia 63.704
rfoot -16.6221 10.2695
rtoes -3.84541
lfemur -76.3244 -4.45819 -25.1972
ltibia 57.067
lfoot -12.5814 -7.62812
ltoes -7.19699
